<svg width="174" height="152" viewBox="0 0 174 152" fill="none" xmlns="http://www.w3.org/2000/svg">
<g id="No Orders">
<g id="Group">
<path id="Vector" d="M118.551 150.775H41.2347C37.705 150.775 34.289 149.524 31.5902 147.244C28.8915 144.964 27.0838 141.801 26.4867 138.314L15.8618 76.2803H143.923L133.298 138.314C132.701 141.801 130.894 144.964 128.195 147.244C125.496 149.524 122.08 150.775 118.551 150.775Z" fill="black"/>
<g id="Group_2">
<path id="Vector_2" d="M144.2 70.2964H15.5849C12.5363 70.2964 10.0649 72.7734 10.0649 75.8291C10.0649 78.8847 12.5363 81.3617 15.5849 81.3617H144.2C147.249 81.3617 149.72 78.8847 149.72 75.8291C149.72 72.7734 147.249 70.2964 144.2 70.2964Z" fill="white"/>
<path id="Vector_3" d="M144.202 81.7986H15.5849C14.0056 81.7986 12.4909 81.1697 11.3742 80.0504C10.2574 78.9311 9.63 77.4129 9.63 75.83C9.63 74.247 10.2574 72.7288 11.3742 71.6095C12.4909 70.4902 14.0056 69.8613 15.5849 69.8613H144.202C145.781 69.8613 147.296 70.4902 148.412 71.6095C149.529 72.7288 150.157 74.247 150.157 75.83C150.157 77.4129 149.529 78.9311 148.412 80.0504C147.296 81.1697 145.781 81.7986 144.202 81.7986ZM15.5863 70.7339C14.2379 70.7339 12.9447 71.2708 11.9912 72.2265C11.0377 73.1822 10.502 74.4784 10.502 75.83C10.502 77.1815 11.0377 78.4777 11.9912 79.4334C12.9447 80.3891 14.2379 80.926 15.5863 80.926H144.202C145.55 80.926 146.843 80.3891 147.797 79.4334C148.75 78.4777 149.286 77.1815 149.286 75.83C149.286 74.4784 148.75 73.1822 147.797 72.2265C146.843 71.2708 145.55 70.7339 144.202 70.7339H15.5863Z" fill="#757575"/>
</g>
<g id="Group_3">
<g id="Group_4">
<g id="Group_5">
<path id="Vector_4" d="M96.9231 72.4338C95.4853 74.2457 95.7851 76.8829 97.5928 78.3241C99.4006 79.7653 102.032 79.4648 103.47 77.6529L128.085 46.6353C129.522 44.8234 129.223 42.1862 127.415 40.745C125.607 39.3038 122.976 39.6043 121.538 41.4162L96.9231 72.4338Z" fill="white"/>
<path id="Vector_5" d="M100.186 79.6735C99.1448 79.6741 98.1341 79.3189 97.321 78.6665C96.3637 77.9016 95.7483 76.7874 95.6097 75.5682C95.4711 74.3491 95.8206 73.1246 96.5817 72.1635L121.196 41.1455C121.574 40.6699 122.041 40.2734 122.572 39.9787C123.102 39.684 123.685 39.497 124.288 39.4282C124.89 39.3594 125.5 39.4102 126.083 39.5778C126.666 39.7453 127.21 40.0263 127.685 40.4047C128.16 40.7831 128.555 41.2514 128.849 41.783C129.143 42.3147 129.33 42.8991 129.398 43.503C129.467 44.1069 129.416 44.7185 129.249 45.3027C129.082 45.887 128.802 46.4325 128.424 46.9082L103.81 77.9258C103.433 78.4027 102.966 78.8001 102.436 79.0948C101.905 79.3896 101.321 79.576 100.718 79.6431C100.542 79.6633 100.364 79.6734 100.186 79.6735ZM97.8628 77.9838C98.248 78.2909 98.6897 78.5189 99.1627 78.6548C99.6358 78.7908 100.131 78.832 100.62 78.7762C101.109 78.7203 101.582 78.5685 102.012 78.3294C102.443 78.0902 102.822 77.7684 103.128 77.3824L127.743 46.3644C128.049 45.9784 128.277 45.5358 128.412 45.0616C128.548 44.5875 128.589 44.0913 128.534 43.6012C128.478 43.1111 128.327 42.6368 128.088 42.2054C127.85 41.7739 127.529 41.3938 127.143 41.0867C126.758 40.7796 126.317 40.5515 125.844 40.4155C125.371 40.2795 124.876 40.2382 124.387 40.2939C123.898 40.3497 123.424 40.5014 122.994 40.7405C122.564 40.9796 122.184 41.3013 121.878 41.6872L97.2632 72.7049C96.6456 73.4848 96.3619 74.4784 96.4743 75.4677C96.5867 76.4571 97.0861 77.3613 97.8628 77.982V77.9838Z" fill="#757575"/>
</g>
<g id="Group_6">
<path id="Vector_6" d="M99.9157 76.9764C100.786 76.9764 101.492 76.2691 101.492 75.3967C101.492 74.5242 100.786 73.8169 99.9157 73.8169C99.0453 73.8169 98.3396 74.5242 98.3396 75.3967C98.3396 76.2691 99.0453 76.9764 99.9157 76.9764Z" fill="white"/>
<path id="Vector_7" d="M99.9203 77.4133C99.6227 77.4135 99.3288 77.3476 99.0597 77.2203C98.7906 77.0931 98.5529 76.9076 98.3638 76.6774C98.1747 76.4471 98.0389 76.1777 97.966 75.8885C97.8932 75.5993 97.8852 75.2975 97.9426 75.0049C98.0168 74.6305 98.1955 74.285 98.4579 74.0085C98.7203 73.7319 99.0556 73.5357 99.4249 73.4427C99.7942 73.3496 100.182 73.3636 100.544 73.4829C100.906 73.6022 101.226 73.8219 101.468 74.1166C101.71 74.4113 101.863 74.7687 101.911 75.1474C101.958 75.5261 101.897 75.9105 101.735 76.2558C101.573 76.6011 101.316 76.8932 100.995 77.0981C100.674 77.303 100.301 77.4123 99.9203 77.4133ZM98.7969 75.1745C98.7454 75.4341 98.7853 75.7035 98.9099 75.9369C99.0344 76.1702 99.2358 76.3531 99.4798 76.4543C99.7237 76.5555 99.9952 76.5688 100.248 76.4919C100.5 76.415 100.719 76.2526 100.865 76.0325C101.012 75.8124 101.078 75.5482 101.052 75.2848C101.026 75.0215 100.91 74.7753 100.723 74.5883C100.536 74.4012 100.29 74.2849 100.027 74.2591C99.7647 74.2333 99.5011 74.2996 99.2816 74.4468C99.0303 74.6154 98.8559 74.8772 98.7969 75.1745Z" fill="#757575"/>
</g>
</g>
<g id="Group_7">
<g id="Group_8">
<path id="Vector_8" d="M38.2479 41.4167C36.81 39.6048 34.1789 39.3043 32.3712 40.7455C30.5634 42.1867 30.2636 44.8238 31.7015 46.6357L56.3165 77.6533C57.7544 79.4652 60.3855 79.7657 62.1932 78.3245C64.001 76.8833 64.3008 74.2462 62.8629 72.4343L38.2479 41.4167Z" fill="white"/>
<path id="Vector_9" d="M59.5943 79.6706C58.8989 79.672 58.2122 79.5157 57.5855 79.2135C56.9589 78.9113 56.4086 78.4709 55.9757 77.9254L31.3606 46.9077C30.5982 45.9471 30.2478 44.7222 30.3864 43.5025C30.525 42.2829 31.1413 41.1684 32.0998 40.4042C33.0582 39.64 34.2803 39.2888 35.4972 39.4277C36.714 39.5666 37.826 40.1844 38.5884 41.1451L63.2035 72.163C63.7443 72.8439 64.0825 73.6639 64.1793 74.5289C64.2761 75.3938 64.1274 76.2685 63.7505 77.0525C63.3736 77.8366 62.7836 78.4982 62.0484 78.9613C61.3133 79.4244 60.4626 79.6702 59.5943 79.6706ZM34.9709 40.2721C34.2663 40.2726 33.5762 40.4723 32.9798 40.8481C32.3834 41.224 31.9048 41.7608 31.5989 42.3969C31.2931 43.0331 31.1725 43.7428 31.2509 44.4445C31.3293 45.1463 31.6035 45.8117 32.0422 46.3643L56.6569 77.3819C57.2762 78.1605 58.1783 78.6611 59.1654 78.7738C60.1524 78.8866 61.1438 78.6023 61.922 77.9833C62.3071 77.6763 62.6281 77.2963 62.8667 76.8649C63.1053 76.4336 63.2568 75.9593 63.3125 75.4693C63.3682 74.9793 63.3271 74.483 63.1915 74.0089C63.0558 73.5348 62.8283 73.0921 62.522 72.7061L37.9072 41.6885C37.556 41.2458 37.1094 40.8885 36.6009 40.6432C36.0924 40.398 35.5352 40.2711 34.9709 40.2721Z" fill="#757575"/>
</g>
<g id="Group_9">
<path id="Vector_10" d="M59.8694 76.9769C60.7399 76.9769 61.4456 76.2696 61.4456 75.3971C61.4456 74.5247 60.7399 73.8174 59.8694 73.8174C58.9989 73.8174 58.2933 74.5247 58.2933 75.3971C58.2933 76.2696 58.9989 76.9769 59.8694 76.9769Z" fill="white"/>
<path id="Vector_11" d="M59.8653 77.4137C59.4843 77.413 59.1113 77.3039 58.7898 77.0991C58.4682 76.8943 58.2113 76.6021 58.0489 76.2567C57.8865 75.9112 57.8254 75.5266 57.8725 75.1477C57.9197 74.7688 58.0732 74.411 58.3153 74.1161C58.5574 73.8213 58.878 73.6013 59.2399 73.4819C59.6018 73.3625 59.9901 73.3486 60.3596 73.4418C60.7291 73.5349 61.0646 73.7313 61.327 74.0081C61.5895 74.2849 61.7682 74.6307 61.8423 75.0053C61.8997 75.2979 61.8918 75.5996 61.819 75.8888C61.7463 76.1779 61.6105 76.4474 61.4215 76.6776C61.2324 76.9079 60.9948 77.0934 60.7258 77.2206C60.4567 77.3479 60.1628 77.4138 59.8653 77.4137ZM59.8719 74.2535C59.6367 74.2529 59.407 74.3253 59.2144 74.4606C59.0217 74.596 58.8756 74.7877 58.7959 75.0095C58.7162 75.2314 58.7068 75.4725 58.7692 75.6999C58.8315 75.9272 58.9624 76.1297 59.144 76.2796C59.3256 76.4295 59.549 76.5195 59.7836 76.5372C60.0182 76.5549 60.2525 76.4994 60.4545 76.3785C60.6564 76.2575 60.8161 76.0769 60.9117 75.8615C61.0073 75.646 61.034 75.4062 60.9884 75.1749C60.937 74.9158 60.7977 74.6824 60.5942 74.5145C60.3907 74.3465 60.1355 74.2543 59.8719 74.2535Z" fill="#757575"/>
</g>
</g>
</g>
<path id="Vector_12" d="M83.1515 100.819C83.1515 99.0148 81.6923 97.5522 79.8924 97.5522C78.0925 97.5522 76.6334 99.0148 76.6334 100.819V131.703C76.6334 133.507 78.0925 134.969 79.8924 134.969C81.6923 134.969 83.1515 133.507 83.1515 131.703V100.819Z" fill="white"/>
<path id="Vector_13" d="M51.9962 100.501C51.7196 98.7183 50.0537 97.4978 48.2751 97.775C46.4966 98.0522 45.279 99.722 45.5556 101.505L50.2897 132.022C50.5662 133.804 52.2322 135.025 54.0107 134.748C55.7893 134.471 57.0069 132.801 56.7303 131.018L51.9962 100.501Z" fill="white"/>
<path id="Vector_14" d="M103.727 131.017C103.451 132.8 104.669 134.47 106.447 134.747C108.226 135.024 109.892 133.804 110.168 132.021L114.902 101.504C115.179 99.7215 113.961 98.0516 112.183 97.7744C110.404 97.4973 108.738 98.7177 108.462 100.5L103.727 131.017Z" fill="white"/>
</g>
<g id="Group_10">
<path id="Vector_15" d="M63.8105 56.2486C63.7172 56.2486 63.6263 56.2195 63.5504 56.1652C63.4529 56.0961 63.3867 55.991 63.3666 55.8732C63.3465 55.7553 63.374 55.6343 63.4431 55.5368C63.5265 55.4191 71.6737 43.6407 62.5785 32.9028C60.9687 30.9924 58.9606 29.4571 56.6949 28.4046C54.4293 27.3521 51.9608 26.8078 49.4626 26.8098H49.34C50.2037 29.8103 50.0495 32.4781 48.8265 34.5247C48.3054 35.4496 47.5364 36.2105 46.6061 36.7218C45.6759 37.2331 44.6213 37.4745 43.5612 37.4188C42.6837 37.347 41.8462 37.0208 41.1513 36.4801C40.4564 35.9395 39.9342 35.208 39.6488 34.3751C38.6485 31.7659 39.6939 29.236 42.4491 27.6055C44.1946 26.6429 46.1341 26.0851 48.1242 25.9731C47.4768 24.2567 46.6349 22.62 45.6151 21.0951C42.331 16.0795 36.3458 12.6075 29.1935 11.5693C23.1321 10.6898 17.3231 11.7258 14.3925 14.2078C14.3012 14.2851 14.183 14.3229 14.0638 14.3129C13.9447 14.303 13.8344 14.2461 13.7571 14.1549C13.6799 14.0636 13.6421 13.9454 13.652 13.8262C13.6619 13.707 13.7188 13.5967 13.8101 13.5195C16.9287 10.8783 23.0176 9.76164 29.3229 10.6795C36.7308 11.7551 42.9437 15.3718 46.3697 20.6033C47.4804 22.2624 48.3839 24.0512 49.06 25.9299C51.755 25.8651 54.4301 26.4058 56.8884 27.5121C59.3467 28.6184 61.5254 30.2621 63.2642 32.3221C72.8179 43.6006 64.2636 55.9371 64.1761 56.0606C64.1344 56.1187 64.0796 56.166 64.016 56.1987C63.9524 56.2314 63.882 56.2485 63.8105 56.2486ZM48.4168 26.8427C46.4873 26.925 44.6028 27.4517 42.9103 28.3817C40.5319 29.7891 39.651 31.8565 40.4927 34.0528C40.7207 34.7257 41.14 35.3176 41.6991 35.756C42.2583 36.1945 42.9331 36.4604 43.641 36.5213C44.5324 36.5612 45.4173 36.3524 46.1967 35.9182C46.9762 35.484 47.6195 34.8416 48.0548 34.0627C49.1772 32.1828 49.28 29.6841 48.4154 26.8427H48.4168Z" fill="#292A2E"/>
<g id="Group_11">
<path id="Vector_16" d="M6.61227 21.4759C5.84621 21.7061 5.02058 21.6281 4.31116 21.2586C3.60175 20.8891 3.0646 20.2572 2.81409 19.4976C2.56358 18.7379 2.6195 17.9105 2.96994 17.1915C3.32038 16.4724 3.93766 15.9186 4.69035 15.6479C5.44303 15.3772 6.27165 15.411 6.99978 15.7421C7.72791 16.0733 8.29802 16.6755 8.58872 17.4207C8.87942 18.1659 8.86774 18.9951 8.55618 19.7319C8.24462 20.4686 7.65778 21.0546 6.92062 21.365C6.81994 21.4076 6.717 21.4446 6.61227 21.4759ZM5.11338 16.4667C5.04036 16.4886 4.96858 16.5145 4.89835 16.5442C4.37967 16.7629 3.96686 17.1755 3.74785 17.694C3.52885 18.2126 3.52095 18.7962 3.72584 19.3205C3.93073 19.8448 4.33222 20.2683 4.84479 20.501C5.35737 20.7336 5.94052 20.757 6.47005 20.566C6.99959 20.3751 7.43365 19.985 7.67979 19.4787C7.92593 18.9725 7.9647 18.3902 7.78784 17.8558C7.61098 17.3214 7.23247 16.8771 6.73292 16.6177C6.23337 16.3582 5.65227 16.304 5.11338 16.4667Z" fill="#292A2E"/>
<path id="Vector_17" d="M6.60685 14.412C5.88219 14.6283 5.10312 14.5692 4.41943 14.2459C3.73574 13.9226 3.19569 13.358 2.90311 12.6606C2.66852 12.1015 2.605 11.4854 2.72058 10.8902C2.83616 10.2951 3.12564 9.74751 3.55243 9.31685C3.97921 8.88619 4.52412 8.59176 5.11824 8.4708C5.71236 8.34984 6.32901 8.40779 6.89019 8.63731C7.45138 8.86683 7.9319 9.25761 8.27099 9.76024C8.61007 10.2629 8.79248 10.8548 8.79516 11.4611C8.79783 12.0674 8.62065 12.6608 8.28602 13.1664C7.95138 13.672 7.47433 14.0671 6.91519 14.3015C6.8144 14.3437 6.71148 14.3805 6.60685 14.412ZM5.10975 9.40228C5.03586 9.42444 4.96318 9.45048 4.89202 9.48026C4.36318 9.7024 3.94417 10.1254 3.7271 10.6564C3.51002 11.1873 3.51264 11.7827 3.73438 12.3117C3.89609 12.6973 4.16608 13.0278 4.51168 13.2632C4.85728 13.4987 5.26369 13.6289 5.68175 13.6382C6.0998 13.6475 6.5116 13.5354 6.86732 13.3156C7.22304 13.0958 7.50744 12.7776 7.68614 12.3996C7.86483 12.0215 7.93015 11.5998 7.87419 11.1854C7.81824 10.771 7.64341 10.3817 7.37086 10.0645C7.0983 9.74739 6.7397 9.51603 6.33842 9.39842C5.93714 9.28081 5.51037 9.28199 5.10975 9.40182V9.40228Z" fill="#292A2E"/>
<path id="Vector_18" d="M5.73186 17.6002C7.94568 17.6002 9.74034 16.4015 9.74034 14.9229C9.74034 13.4443 7.94568 12.2456 5.73186 12.2456C3.51804 12.2456 1.72339 13.4443 1.72339 14.9229C1.72339 16.4015 3.51804 17.6002 5.73186 17.6002Z" fill="white"/>
<path id="Vector_19" d="M7.50616 17.7968C6.93146 17.9667 6.33516 18.0523 5.73588 18.0511C3.23487 18.0511 1.27301 16.6807 1.27301 14.9266C1.27301 13.1726 3.22901 11.7972 5.72912 11.7945C6.81913 11.7736 7.89154 12.0713 8.81482 12.651C9.22949 12.867 9.57703 13.1925 9.81971 13.5922C10.0624 13.9919 10.1909 14.4504 10.1913 14.9179C10.1918 15.3855 10.064 15.8443 9.82208 16.2443C9.58012 16.6444 9.23316 16.9706 8.81888 17.1874C8.41388 17.4544 7.97148 17.6598 7.50616 17.7968ZM4.23248 12.9107C3.02796 13.2713 2.17415 14.0498 2.1746 14.9244C2.1746 16.1311 3.80513 17.1495 5.73588 17.1477C6.64793 17.1669 7.54582 16.92 8.31984 16.4372C8.61014 16.3035 8.856 16.0894 9.02824 15.8201C9.20048 15.5509 9.29187 15.2379 9.29159 14.9183C9.29131 14.5987 9.19935 14.2859 9.02663 14.017C8.85391 13.748 8.60768 13.5343 8.31714 13.4011C7.54255 12.9194 6.64423 12.674 5.73228 12.6952C5.22454 12.6939 4.71931 12.7664 4.23248 12.9107Z" fill="#292A2E"/>
<path id="Vector_20" d="M6.71507 17.5183L6.6204 12.3116L5.32572 12.2593L5.23511 17.5791L6.71507 17.5183Z" fill="#292A2E"/>
<path id="Vector_21" d="M0.41383 16.0557C0.642382 16.0557 0.82766 15.8704 0.82766 15.6419C0.82766 15.4133 0.642382 15.228 0.41383 15.228C0.185278 15.228 0 15.4133 0 15.6419C0 15.8704 0.185278 16.0557 0.41383 16.0557Z" fill="#292A2E"/>
<path id="Vector_22" d="M0.737011 13.8413C0.965563 13.8413 1.15084 13.6561 1.15084 13.4275C1.15084 13.1989 0.965563 13.0137 0.737011 13.0137C0.508459 13.0137 0.323181 13.1989 0.323181 13.4275C0.323181 13.6561 0.508459 13.8413 0.737011 13.8413Z" fill="#292A2E"/>
</g>
</g>
<g id="Group_12">
<path id="Vector_23" d="M96.8325 59.8499C96.736 59.8498 96.6421 59.8189 96.5645 59.7615C96.4869 59.7041 96.4298 59.6234 96.4015 59.5311C94.9063 53.9475 94.5073 48.1269 95.2267 42.3914C96.392 34.0066 101.016 23.0023 116.428 18.1837C118.596 17.4865 120.82 16.9766 123.076 16.6596C123.802 12.1241 126.565 7.20415 132.743 3.80966C147.422 -4.25597 157.337 2.98065 157.435 3.05458C157.531 3.12631 157.594 3.23311 157.611 3.35146C157.628 3.46982 157.597 3.59005 157.525 3.68569C157.454 3.78134 157.347 3.84457 157.228 3.86148C157.11 3.87839 156.99 3.84759 156.894 3.77585C156.8 3.70553 147.325 -3.17406 133.177 4.60036C127.405 7.77261 124.762 12.3256 124.01 16.5523C130.808 15.8829 134.063 18.1504 135.524 19.8629C136.428 20.8928 137.009 22.1659 137.195 23.5236C137.38 24.8812 137.162 26.2635 136.567 27.4981C136.098 28.4959 135.336 29.3279 134.384 29.8839C133.431 30.44 132.332 30.6941 131.232 30.6126C127.436 30.3899 124.294 27.1965 123.23 22.4767C122.878 20.8789 122.785 19.2353 122.953 17.6081C120.831 17.9129 118.739 18.394 116.697 19.0465C104.686 22.8021 97.7638 30.6996 96.1193 42.5181C95.4148 48.1234 95.8034 53.8122 97.2634 59.2697C97.2841 59.3371 97.2887 59.4084 97.2768 59.4779C97.2649 59.5474 97.2368 59.6131 97.1949 59.6698C97.153 59.7265 97.0984 59.7725 97.0354 59.8043C96.9725 59.836 96.903 59.8526 96.8325 59.8526V59.8499ZM123.872 17.4954C123.684 19.0916 123.764 20.708 124.109 22.2779C125.083 26.5956 127.9 29.5136 131.285 29.7124C132.208 29.7785 133.129 29.5642 133.927 29.0976C134.726 28.631 135.365 27.9339 135.76 27.0978C136.276 26.0212 136.463 24.8167 136.299 23.6345C136.135 22.4522 135.626 21.3444 134.837 20.449C132.729 17.9755 128.883 16.9765 123.872 17.4954Z" fill="#292A2E"/>
<g id="Group_13">
<path id="Vector_24" d="M167.936 7.61054C167.329 7.60927 166.734 7.43633 166.221 7.11169C165.708 6.78705 165.297 6.32394 165.036 5.77581C164.775 5.22767 164.674 4.61686 164.745 4.01387C164.816 3.41088 165.057 2.84029 165.438 2.36795C165.82 1.89561 166.327 1.54079 166.902 1.34442C167.476 1.14805 168.094 1.11815 168.685 1.25816C169.276 1.39817 169.815 1.7024 170.241 2.13572C170.666 2.56904 170.96 3.11379 171.089 3.7071C171.19 4.17743 171.185 4.6644 171.073 5.13235C170.962 5.60031 170.747 6.0374 170.445 6.41163C170.142 6.78586 169.76 7.08775 169.326 7.29519C168.892 7.50264 168.417 7.61038 167.936 7.61054ZM167.943 2.07297C167.463 2.07296 166.996 2.22166 166.604 2.49859C166.213 2.77551 165.917 3.16702 165.757 3.61916C165.598 4.07129 165.582 4.5618 165.713 5.02307C165.844 5.48433 166.115 5.89366 166.488 6.19462C166.861 6.49558 167.319 6.67337 167.797 6.70348C168.276 6.73358 168.752 6.61453 169.16 6.36272C169.568 6.11091 169.888 5.73874 170.075 5.29751C170.263 4.85629 170.309 4.36772 170.208 3.89914C170.098 3.38072 169.812 2.91602 169.4 2.58338C168.987 2.25073 168.473 2.07047 167.943 2.07297Z" fill="#292A2E"/>
<path id="Vector_25" d="M166.579 14.9679C165.752 14.9679 164.958 14.6511 164.358 14.0827C163.758 13.5144 163.399 12.7377 163.355 11.9127C163.311 11.0876 163.584 10.277 164.12 9.64762C164.655 9.01824 165.411 8.61803 166.233 8.52939C167.054 8.44074 167.878 8.6704 168.535 9.17109C169.193 9.67177 169.633 10.4054 169.766 11.2209C169.898 12.0364 169.713 12.8717 169.249 13.5549C168.784 14.2382 168.075 14.7172 167.268 14.8936C167.042 14.943 166.81 14.9679 166.579 14.9679ZM166.59 9.42992C166.423 9.43 166.257 9.44798 166.094 9.48357C165.518 9.61004 165.013 9.9524 164.682 10.4402C164.351 10.928 164.219 11.5242 164.314 12.106C164.409 12.6879 164.724 13.2112 165.193 13.5682C165.662 13.9252 166.25 14.0889 166.836 14.0255C167.422 13.9621 167.962 13.6764 168.344 13.2273C168.726 12.7782 168.921 12.1998 168.89 11.611C168.858 11.0223 168.602 10.4681 168.174 10.0624C167.747 9.65666 167.18 9.43032 166.59 9.42992Z" fill="#292A2E"/>
<path id="Vector_26" d="M171.42 8.92733C171.704 7.38757 170.066 5.79448 167.76 5.36908C165.455 4.94368 163.356 5.84706 163.072 7.38682C162.787 8.92658 164.426 10.5197 166.731 10.9451C169.037 11.3705 171.136 10.4671 171.42 8.92733Z" fill="white"/>
<path id="Vector_27" d="M167.867 11.5019C167.458 11.5013 167.051 11.4636 166.649 11.3892C165.516 11.2011 164.462 10.6863 163.616 9.90793C163.246 9.5922 162.962 9.18827 162.789 8.73348C162.616 8.27868 162.561 7.78771 162.628 7.30594C162.738 6.83189 162.964 6.39298 163.288 6.02977C163.612 5.66655 164.021 5.39072 164.48 5.22777C165.552 4.82277 166.715 4.71864 167.842 4.92665C168.969 5.13466 170.018 5.6469 170.875 6.40795C171.245 6.72368 171.53 7.12761 171.702 7.58241C171.875 8.0372 171.93 8.52817 171.863 9.00995C171.754 9.484 171.527 9.9229 171.203 10.2861C170.88 10.6493 170.47 10.9252 170.012 11.0881C169.332 11.3694 168.602 11.5102 167.867 11.5019ZM166.622 5.71463C166.009 5.70684 165.402 5.82292 164.836 6.05588C164.516 6.16311 164.227 6.34853 163.996 6.59538C163.766 6.84222 163.6 7.14269 163.515 7.46958C163.478 7.80535 163.525 8.14506 163.653 8.45795C163.78 8.77083 163.984 9.04701 164.245 9.26149C164.974 9.89792 165.861 10.3264 166.812 10.5021C167.764 10.6778 168.746 10.5942 169.654 10.26C169.974 10.1528 170.263 9.96735 170.494 9.72051C170.724 9.47366 170.89 9.17319 170.975 8.84631C171.012 8.51051 170.965 8.17072 170.838 7.8578C170.71 7.54487 170.507 7.26871 170.245 7.05439C169.528 6.39973 168.635 5.96847 167.676 5.81335C167.329 5.74869 166.976 5.71565 166.623 5.71463H166.622Z" fill="#292A2E"/>
<path id="Vector_28" d="M166.725 5.26562L165.819 10.7049L167.156 11.0097L168.278 5.48787L166.725 5.26562Z" fill="#292A2E"/>
<path id="Vector_29" d="M172.16 11.1171C172.402 11.1171 172.598 10.9209 172.598 10.6789C172.598 10.4369 172.402 10.2407 172.16 10.2407C171.918 10.2407 171.721 10.4369 171.721 10.6789C171.721 10.9209 171.918 11.1171 172.16 11.1171Z" fill="#292A2E"/>
<path id="Vector_30" d="M172.923 8.87391C173.165 8.87391 173.361 8.67773 173.361 8.43573C173.361 8.19374 173.165 7.99756 172.923 7.99756C172.681 7.99756 172.485 8.19374 172.485 8.43573C172.485 8.67773 172.681 8.87391 172.923 8.87391Z" fill="#292A2E"/>
</g>
</g>
</g>
</svg>
