<svg width="63" height="16" viewBox="0 0 63 16" fill="none" xmlns="http://www.w3.org/2000/svg">
<path d="M0.78125 15L0.576172 14.4629V14.4434H0.595703L10.2637 1.5625H4.92188C4.57031 1.5625 4.20573 1.5918 3.82812 1.65039C3.45703 1.70247 3.10872 1.80664 2.7832 1.96289C2.45768 2.11263 2.17448 2.32422 1.93359 2.59766C1.69271 2.87109 1.52669 3.22591 1.43555 3.66211L1.10352 3.60352C1.10352 3.57747 1.10026 3.47656 1.09375 3.30078C1.08724 3.125 1.06771 2.91016 1.03516 2.65625C1.0026 2.40234 0.950521 2.12891 0.878906 1.83594C0.807292 1.53646 0.70638 1.25651 0.576172 0.996094H13.2031L13.3984 1.5625L3.64258 14.4434H9.08203C9.43359 14.4434 9.79492 14.4173 10.166 14.3652C10.5371 14.3066 10.8854 14.2025 11.2109 14.0527C11.5365 13.8965 11.8197 13.6816 12.0605 13.4082C12.3014 13.1348 12.4674 12.7799 12.5586 12.3438L12.9004 12.4023C12.9004 12.4284 12.9036 12.5293 12.9102 12.7051C12.9167 12.8809 12.9362 13.0957 12.9688 13.3496C13.0013 13.6035 13.0501 13.877 13.1152 14.1699C13.1868 14.4629 13.2878 14.7396 13.418 15H0.78125ZM31.0059 14.4824C30.4134 14.7233 29.873 14.8861 29.3848 14.9707C28.8965 15.0553 28.457 15.0977 28.0664 15.0977C27.7539 15.0977 27.4837 15.0781 27.2559 15.0391C27.028 15.0065 26.8327 14.9642 26.6699 14.9121C26.4811 14.8535 26.3184 14.7884 26.1816 14.7168C25.8952 14.554 25.6445 14.3424 25.4297 14.082C25.2148 13.8216 25.0195 13.5417 24.8438 13.2422C24.6745 12.9427 24.5215 12.6335 24.3848 12.3145C24.248 11.9954 24.1146 11.696 23.9844 11.416L23.7402 10.8984C23.0827 11.0872 22.4674 11.3053 21.8945 11.5527C21.3281 11.7936 20.8236 12.0345 20.3809 12.2754C19.9382 12.5098 19.5638 12.7279 19.2578 12.9297C18.9583 13.125 18.7467 13.2682 18.623 13.3594C18.3822 13.6263 18.112 13.8639 17.8125 14.0723C17.513 14.2806 17.1777 14.4596 16.8066 14.6094C16.4355 14.7526 16.0221 14.8633 15.5664 14.9414C15.1107 15.0195 14.6094 15.0586 14.0625 15.0586L13.9648 14.6387C14.5964 14.5345 15.14 14.3327 15.5957 14.0332C16.0579 13.7337 16.4551 13.3659 16.7871 12.9297C17.1191 12.487 17.4023 11.9922 17.6367 11.4453C17.8711 10.8919 18.0794 10.3092 18.2617 9.69727C18.3659 9.3457 18.5026 8.97461 18.6719 8.58398C18.8477 8.19336 19.056 7.81576 19.2969 7.45117C19.5443 7.08008 19.8242 6.73503 20.1367 6.41602C20.4557 6.09049 20.8171 5.81706 21.2207 5.5957C21.11 5.38737 20.9993 5.17578 20.8887 4.96094C20.7845 4.73958 20.6836 4.51823 20.5859 4.29688C20.4492 4.03646 20.3125 3.75 20.1758 3.4375C20.0391 3.11849 19.8763 2.82552 19.6875 2.55859C19.5052 2.28516 19.2871 2.05729 19.0332 1.875C18.7858 1.69271 18.4766 1.60156 18.1055 1.60156C17.8451 1.60156 17.5879 1.63086 17.334 1.68945C17.0866 1.74805 16.849 1.81966 16.6211 1.9043L16.4844 1.50391C17.0508 1.3151 17.6237 1.1556 18.2031 1.02539C18.7891 0.888672 19.3685 0.820312 19.9414 0.820312C20.2148 0.820312 20.485 0.839844 20.752 0.878906C21.0189 0.911458 21.276 0.973307 21.5234 1.06445C21.7383 1.14258 21.9466 1.27279 22.1484 1.45508C22.3503 1.63086 22.5423 1.84245 22.7246 2.08984C22.9069 2.33073 23.0762 2.59115 23.2324 2.87109C23.3952 3.15104 23.5449 3.43099 23.6816 3.71094C23.8249 3.99089 23.9518 4.25781 24.0625 4.51172C24.1797 4.75911 24.2806 4.97396 24.3652 5.15625C24.9382 6.38672 25.5078 7.62044 26.0742 8.85742C26.6406 10.0879 27.2493 11.3021 27.9004 12.5C28.0176 12.7148 28.1413 12.9264 28.2715 13.1348C28.4082 13.3431 28.5579 13.5286 28.7207 13.6914C28.89 13.8542 29.0755 13.9844 29.2773 14.082C29.4792 14.1797 29.707 14.2253 29.9609 14.2188C30.0521 14.2188 30.1758 14.209 30.332 14.1895C30.4948 14.1699 30.6706 14.1211 30.8594 14.043L31.0059 14.4824ZM21.7676 6.71875C21.5983 6.99219 21.4421 7.27539 21.2988 7.56836C21.1621 7.86133 21.0352 8.16081 20.918 8.4668C20.8008 8.76628 20.6934 9.06576 20.5957 9.36523C20.498 9.66471 20.4004 9.95117 20.3027 10.2246C20.2051 10.5241 20.0977 10.8171 19.9805 11.1035C19.8698 11.3835 19.7428 11.6569 19.5996 11.9238C20.0879 11.6374 20.6608 11.3379 21.3184 11.0254C21.9759 10.7129 22.679 10.446 23.4277 10.2246L21.7676 6.71875ZM43.1836 4.16016C43.1836 4.51823 43.0892 4.86654 42.9004 5.20508C42.7181 5.54362 42.4707 5.86263 42.1582 6.16211C41.8457 6.45508 41.4811 6.72526 41.0645 6.97266C40.6478 7.21354 40.2083 7.42188 39.7461 7.59766C39.8177 7.58464 39.8893 7.57812 39.9609 7.57812C40.0391 7.57812 40.1139 7.57812 40.1855 7.57812C40.7259 7.57812 41.2598 7.6237 41.7871 7.71484C42.321 7.80599 42.7995 7.97526 43.2227 8.22266C43.6458 8.46354 43.9876 8.79557 44.248 9.21875C44.5085 9.64193 44.6387 10.1823 44.6387 10.8398C44.6387 11.3542 44.5638 11.8132 44.4141 12.2168C44.2708 12.6204 44.069 12.9785 43.8086 13.291C43.5547 13.6035 43.2585 13.8737 42.9199 14.1016C42.5814 14.3229 42.2201 14.5117 41.8359 14.668C41.4518 14.8242 41.0547 14.9479 40.6445 15.0391C40.2344 15.1367 39.834 15.2116 39.4434 15.2637C39.0527 15.3158 38.6784 15.3516 38.3203 15.3711C37.9688 15.3906 37.6562 15.4004 37.3828 15.4004C37.1094 15.4004 36.8262 15.3906 36.5332 15.3711C36.2402 15.3581 35.9473 15.3385 35.6543 15.3125C35.3613 15.2865 35.0716 15.2572 34.7852 15.2246C34.5052 15.1921 34.2383 15.1562 33.9844 15.1172C33.3854 15.0326 32.7995 14.9349 32.2266 14.8242L32.3242 2.74414C32.3242 2.60742 32.3014 2.45768 32.2559 2.29492C32.2103 2.13216 32.1224 1.98242 31.9922 1.8457C31.8685 1.70898 31.6927 1.59505 31.4648 1.50391C31.237 1.40625 30.9375 1.35742 30.5664 1.35742V0.996094H37.0996C38.0241 0.996094 38.8607 1.03516 39.6094 1.11328C40.3581 1.19141 40.9961 1.3444 41.5234 1.57227C42.0573 1.80013 42.4674 2.1224 42.7539 2.53906C43.0404 2.94922 43.1836 3.48958 43.1836 4.16016ZM39.9219 4.14062C39.9219 3.63281 39.8405 3.21289 39.6777 2.88086C39.515 2.54883 39.3001 2.28516 39.0332 2.08984C38.7663 1.89453 38.4635 1.75781 38.125 1.67969C37.7865 1.60156 37.4447 1.5625 37.0996 1.5625C36.748 1.5625 36.4583 1.60156 36.2305 1.67969C36.0091 1.7513 35.8333 1.84896 35.7031 1.97266C35.5794 2.09635 35.4948 2.23958 35.4492 2.40234C35.4036 2.5651 35.3809 2.73763 35.3809 2.91992L35.3418 14.2578C35.5632 14.375 35.8138 14.4759 36.0938 14.5605C36.3346 14.6387 36.6211 14.7103 36.9531 14.7754C37.2852 14.834 37.6562 14.8633 38.0664 14.8633C38.4245 14.8633 38.8118 14.8014 39.2285 14.6777C39.6452 14.5475 40.0326 14.3522 40.3906 14.0918C40.7487 13.8249 41.0449 13.4896 41.2793 13.0859C41.5202 12.6758 41.6406 12.194 41.6406 11.6406C41.6406 11.1784 41.582 10.778 41.4648 10.4395C41.3477 10.0944 41.1882 9.80143 40.9863 9.56055C40.7845 9.31315 40.5534 9.11133 40.293 8.95508C40.0326 8.79883 39.7559 8.67839 39.4629 8.59375C39.1764 8.5026 38.8835 8.44076 38.584 8.4082C38.291 8.37565 38.0111 8.35938 37.7441 8.35938C37.5358 8.35938 37.3405 8.36914 37.1582 8.38867C36.9759 8.40169 36.8164 8.41471 36.6797 8.42773C36.5169 8.45378 36.3704 8.47656 36.2402 8.49609L36.084 8.11523C36.8001 8.0306 37.4382 7.83203 37.998 7.51953C38.2389 7.38932 38.4733 7.22656 38.7012 7.03125C38.929 6.83594 39.1341 6.60156 39.3164 6.32812C39.4987 6.05469 39.6452 5.73893 39.7559 5.38086C39.8665 5.01628 39.9219 4.60286 39.9219 4.14062ZM62.1973 14.4824C61.6048 14.7233 61.0645 14.8861 60.5762 14.9707C60.0879 15.0553 59.6484 15.0977 59.2578 15.0977C58.9453 15.0977 58.6751 15.0781 58.4473 15.0391C58.2194 15.0065 58.0241 14.9642 57.8613 14.9121C57.6725 14.8535 57.5098 14.7884 57.373 14.7168C57.0866 14.554 56.8359 14.3424 56.6211 14.082C56.4062 13.8216 56.2109 13.5417 56.0352 13.2422C55.8659 12.9427 55.7129 12.6335 55.5762 12.3145C55.4395 11.9954 55.306 11.696 55.1758 11.416L54.9316 10.8984C54.2741 11.0872 53.6589 11.3053 53.0859 11.5527C52.5195 11.7936 52.015 12.0345 51.5723 12.2754C51.1296 12.5098 50.7552 12.7279 50.4492 12.9297C50.1497 13.125 49.9382 13.2682 49.8145 13.3594C49.5736 13.6263 49.3034 13.8639 49.0039 14.0723C48.7044 14.2806 48.3691 14.4596 47.998 14.6094C47.627 14.7526 47.2135 14.8633 46.7578 14.9414C46.3021 15.0195 45.8008 15.0586 45.2539 15.0586L45.1562 14.6387C45.7878 14.5345 46.3314 14.3327 46.7871 14.0332C47.2493 13.7337 47.6465 13.3659 47.9785 12.9297C48.3105 12.487 48.5938 11.9922 48.8281 11.4453C49.0625 10.8919 49.2708 10.3092 49.4531 9.69727C49.5573 9.3457 49.694 8.97461 49.8633 8.58398C50.0391 8.19336 50.2474 7.81576 50.4883 7.45117C50.7357 7.08008 51.0156 6.73503 51.3281 6.41602C51.6471 6.09049 52.0085 5.81706 52.4121 5.5957C52.3014 5.38737 52.1908 5.17578 52.0801 4.96094C51.9759 4.73958 51.875 4.51823 51.7773 4.29688C51.6406 4.03646 51.5039 3.75 51.3672 3.4375C51.2305 3.11849 51.0677 2.82552 50.8789 2.55859C50.6966 2.28516 50.4785 2.05729 50.2246 1.875C49.9772 1.69271 49.668 1.60156 49.2969 1.60156C49.0365 1.60156 48.7793 1.63086 48.5254 1.68945C48.278 1.74805 48.0404 1.81966 47.8125 1.9043L47.6758 1.50391C48.2422 1.3151 48.8151 1.1556 49.3945 1.02539C49.9805 0.888672 50.5599 0.820312 51.1328 0.820312C51.4062 0.820312 51.6764 0.839844 51.9434 0.878906C52.2103 0.911458 52.4674 0.973307 52.7148 1.06445C52.9297 1.14258 53.138 1.27279 53.3398 1.45508C53.5417 1.63086 53.7337 1.84245 53.916 2.08984C54.0983 2.33073 54.2676 2.59115 54.4238 2.87109C54.5866 3.15104 54.7363 3.43099 54.873 3.71094C55.0163 3.99089 55.1432 4.25781 55.2539 4.51172C55.3711 4.75911 55.472 4.97396 55.5566 5.15625C56.1296 6.38672 56.6992 7.62044 57.2656 8.85742C57.832 10.0879 58.4408 11.3021 59.0918 12.5C59.209 12.7148 59.3327 12.9264 59.4629 13.1348C59.5996 13.3431 59.7493 13.5286 59.9121 13.6914C60.0814 13.8542 60.2669 13.9844 60.4688 14.082C60.6706 14.1797 60.8984 14.2253 61.1523 14.2188C61.2435 14.2188 61.3672 14.209 61.5234 14.1895C61.6862 14.1699 61.862 14.1211 62.0508 14.043L62.1973 14.4824ZM52.959 6.71875C52.7897 6.99219 52.6335 7.27539 52.4902 7.56836C52.3535 7.86133 52.2266 8.16081 52.1094 8.4668C51.9922 8.76628 51.8848 9.06576 51.7871 9.36523C51.6895 9.66471 51.5918 9.95117 51.4941 10.2246C51.3965 10.5241 51.2891 10.8171 51.1719 11.1035C51.0612 11.3835 50.9342 11.6569 50.791 11.9238C51.2793 11.6374 51.8522 11.3379 52.5098 11.0254C53.1673 10.7129 53.8704 10.446 54.6191 10.2246L52.959 6.71875Z" fill="black"/>
</svg>
